<?xml version="1.0" encoding="UTF-8" standalone="no"?>
<!DOCTYPE svg PUBLIC "-//W3C//DTD SVG 1.1//EN"
 "http://www.w3.org/Graphics/SVG/1.1/DTD/svg11.dtd">
<!-- Generated by graphviz version 2.47.0 (20210316.0004)
 -->
<!-- Title: dependencies Pages: 1 -->
<svg width="898pt" height="298pt"
 viewBox="0.00 0.00 898.00 298.00" xmlns="http://www.w3.org/2000/svg" xmlns:xlink="http://www.w3.org/1999/xlink">
<g id="graph0" class="graph" transform="scale(1 1) rotate(0) translate(4 294)">
<title>dependencies</title>
<polygon fill="white" stroke="transparent" points="-4,4 -4,-294 894,-294 894,4 -4,4"/>
<text text-anchor="start" x="424.01" y="-42.4" font-family="Times-12" font-weight="bold" font-size="14.00">Legend</text>
<polygon fill="#ffffb3" stroke="transparent" points="211,-10 211,-30 231,-30 231,-10 211,-10"/>
<text text-anchor="start" x="234.63" y="-15.4" font-family="Times-12" font-size="14.00"> &#160;Declarations</text>
<polygon fill="#8dd3c7" stroke="transparent" points="324,-10 324,-30 344,-30 344,-10 324,-10"/>
<text text-anchor="start" x="347.73" y="-15.4" font-family="Times-12" font-size="14.00"> &#160;Module</text>
<polygon fill="#80b1d3" stroke="transparent" points="410,-10 410,-30 430,-30 430,-10 410,-10"/>
<text text-anchor="start" x="433.78" y="-15.4" font-family="Times-12" font-size="14.00"> &#160;Bootstrap</text>
<polygon fill="#fdb462" stroke="transparent" points="507,-10 507,-30 527,-30 527,-10 507,-10"/>
<text text-anchor="start" x="530.67" y="-15.4" font-family="Times-12" font-size="14.00"> &#160;Providers</text>
<polygon fill="#fb8072" stroke="transparent" points="603,-10 603,-30 623,-30 623,-10 603,-10"/>
<text text-anchor="start" x="626.73" y="-15.4" font-family="Times-12" font-size="14.00"> &#160;Exports</text>
<g id="clust7" class="cluster">
<title>cluster_AuthModule</title>
<polygon fill="none" stroke="black" stroke-dasharray="1,5" points="732,-70 732,-282 882,-282 882,-70 732,-70"/>
</g>
<g id="clust12" class="cluster">
<title>cluster_AuthModule_providers</title>
<polygon fill="none" stroke="black" points="740,-78 740,-130 874,-130 874,-78 740,-78"/>
</g>
<g id="clust10" class="cluster">
<title>cluster_AuthModule_exports</title>
<polygon fill="none" stroke="black" points="747,-222 747,-274 853,-274 853,-222 747,-222"/>
</g>
<g id="clust1" class="cluster">
<title>cluster_AppModule</title>
<polygon fill="none" stroke="black" stroke-dasharray="1,5" points="168,-70 168,-274 442,-274 442,-70 168,-70"/>
</g>
<g id="clust6" class="cluster">
<title>cluster_AppModule_providers</title>
<polygon fill="none" stroke="black" points="304,-154 304,-206 434,-206 434,-154 304,-154"/>
</g>
<g id="clust3" class="cluster">
<title>cluster_AppModule_imports</title>
<polygon fill="none" stroke="black" points="176,-78 176,-206 284,-206 284,-78 176,-78"/>
</g>
<g id="clust13" class="cluster">
<title>cluster_PostsModule</title>
<polygon fill="none" stroke="black" stroke-dasharray="1,5" points="8,-70 8,-138 160,-138 160,-70 8,-70"/>
</g>
<g id="clust18" class="cluster">
<title>cluster_PostsModule_providers</title>
<polygon fill="none" stroke="black" points="16,-78 16,-130 152,-130 152,-78 16,-78"/>
</g>
<g id="clust19" class="cluster">
<title>cluster_UsersModule</title>
<polygon fill="none" stroke="black" stroke-dasharray="1,5" points="450,-146 450,-214 724,-214 724,-146 450,-146"/>
</g>
<g id="clust24" class="cluster">
<title>cluster_UsersModule_providers</title>
<polygon fill="none" stroke="black" points="576,-154 576,-206 716,-206 716,-154 576,-154"/>
</g>
<g id="clust22" class="cluster">
<title>cluster_UsersModule_exports</title>
<polygon fill="none" stroke="black" points="458,-154 458,-206 568,-206 568,-154 458,-154"/>
</g>
<!-- AuthModule -->
<g id="node1" class="node">
<title>AuthModule</title>
<polygon fill="#8dd3c7" stroke="black" points="843.55,-198 840.55,-202 819.55,-202 816.55,-198 756.45,-198 756.45,-162 843.55,-162 843.55,-198"/>
<text text-anchor="middle" x="800" y="-175.8" font-family="Times,serif" font-size="14.00">AuthModule</text>
</g>
<!-- AppModule -->
<g id="node4" class="node">
<title>AppModule</title>
<polygon fill="#8dd3c7" stroke="black" points="372.66,-266 369.66,-270 348.66,-270 345.66,-266 289.34,-266 289.34,-230 372.66,-230 372.66,-266"/>
<text text-anchor="middle" x="331" y="-243.8" font-family="Times,serif" font-size="14.00">AppModule</text>
</g>
<!-- AuthModule&#45;&gt;AppModule -->
<g id="edge1" class="edge">
<title>AuthModule&#45;&gt;AppModule</title>
<path fill="none" stroke="black" d="M756.31,-180C753.33,-180 751.48,-180 751.48,-180 751.48,-180 751.48,-248 751.48,-248 751.48,-248 382.85,-248 382.85,-248"/>
<polygon fill="black" stroke="black" points="382.85,-244.5 372.85,-248 382.85,-251.5 382.85,-244.5"/>
</g>
<!-- AuthService  -->
<g id="node6" class="node">
<title>AuthService </title>
<polygon fill="#fb8072" stroke="black" points="844.98,-266 755.02,-266 755.02,-230 844.98,-230 844.98,-266"/>
<text text-anchor="middle" x="800" y="-243.8" font-family="Times,serif" font-size="14.00">AuthService </text>
</g>
<!-- AuthModule&#45;&gt;AuthService  -->
<g id="edge5" class="edge">
<title>AuthModule&#45;&gt;AuthService </title>
<path fill="none" stroke="black" stroke-dasharray="5,2" d="M800,-198.22C800,-198.22 800,-219.73 800,-219.73"/>
<polygon fill="black" stroke="black" points="796.5,-219.73 800,-229.73 803.5,-219.73 796.5,-219.73"/>
</g>
<!-- PostsModule -->
<g id="node2" class="node">
<title>PostsModule</title>
<polygon fill="#8dd3c7" stroke="black" points="273.61,-198 270.61,-202 249.61,-202 246.61,-198 184.39,-198 184.39,-162 273.61,-162 273.61,-198"/>
<text text-anchor="middle" x="229" y="-175.8" font-family="Times,serif" font-size="14.00">PostsModule</text>
</g>
<!-- PostsModule&#45;&gt;AppModule -->
<g id="edge2" class="edge">
<title>PostsModule&#45;&gt;AppModule</title>
<path fill="none" stroke="black" d="M273.92,-180C286.55,-180 296.91,-180 296.91,-180 296.91,-180 296.91,-219.78 296.91,-219.78"/>
<polygon fill="black" stroke="black" points="293.41,-219.78 296.91,-229.78 300.41,-219.78 293.41,-219.78"/>
</g>
<!-- UsersModule -->
<g id="node3" class="node">
<title>UsersModule</title>
<polygon fill="#8dd3c7" stroke="black" points="275.92,-122 272.92,-126 251.92,-126 248.92,-122 184.08,-122 184.08,-86 275.92,-86 275.92,-122"/>
<text text-anchor="middle" x="230" y="-99.8" font-family="Times,serif" font-size="14.00">UsersModule</text>
</g>
<!-- UsersModule&#45;&gt;PostsModule -->
<g id="edge7" class="edge">
<title>UsersModule&#45;&gt;PostsModule</title>
<path fill="none" stroke="black" d="M229,-122.01C229,-122.01 229,-151.85 229,-151.85"/>
<polygon fill="black" stroke="black" points="225.5,-151.85 229,-161.85 232.5,-151.85 225.5,-151.85"/>
</g>
<!-- UsersModule&#45;&gt;AppModule -->
<g id="edge3" class="edge">
<title>UsersModule&#45;&gt;AppModule</title>
<path fill="none" stroke="black" d="M276,-113C291.36,-113 304.64,-113 304.64,-113 304.64,-113 304.64,-219.79 304.64,-219.79"/>
<polygon fill="black" stroke="black" points="301.14,-219.79 304.64,-229.79 308.14,-219.79 301.14,-219.79"/>
</g>
<!-- UsersService  -->
<g id="node9" class="node">
<title>UsersService </title>
<polygon fill="#fb8072" stroke="black" points="559.85,-198 466.15,-198 466.15,-162 559.85,-162 559.85,-198"/>
<text text-anchor="middle" x="513" y="-175.8" font-family="Times,serif" font-size="14.00">UsersService </text>
</g>
<!-- UsersModule&#45;&gt;UsersService  -->
<g id="edge9" class="edge">
<title>UsersModule&#45;&gt;UsersService </title>
<path fill="none" stroke="black" stroke-dasharray="5,2" d="M275.78,-104C355.88,-104 513,-104 513,-104 513,-104 513,-151.99 513,-151.99"/>
<polygon fill="black" stroke="black" points="509.5,-151.99 513,-161.99 516.5,-151.99 509.5,-151.99"/>
</g>
<!-- AppService -->
<g id="node5" class="node">
<title>AppService</title>
<ellipse fill="#fdb462" stroke="black" cx="369" cy="-180" rx="56.74" ry="18"/>
<text text-anchor="middle" x="369" y="-175.8" font-family="Times,serif" font-size="14.00">AppService</text>
</g>
<!-- AppService&#45;&gt;AppModule -->
<g id="edge4" class="edge">
<title>AppService&#45;&gt;AppModule</title>
<path fill="none" stroke="black" d="M342.6,-196.12C342.6,-196.12 342.6,-219.6 342.6,-219.6"/>
<polygon fill="black" stroke="black" points="339.1,-219.6 342.6,-229.6 346.1,-219.6 339.1,-219.6"/>
</g>
<!-- AuthService -->
<g id="node7" class="node">
<title>AuthService</title>
<ellipse fill="#fdb462" stroke="black" cx="807" cy="-104" rx="59.11" ry="18"/>
<text text-anchor="middle" x="807" y="-99.8" font-family="Times,serif" font-size="14.00">AuthService</text>
</g>
<!-- AuthService&#45;&gt;AuthModule -->
<g id="edge6" class="edge">
<title>AuthService&#45;&gt;AuthModule</title>
<path fill="none" stroke="black" d="M800,-122.01C800,-122.01 800,-151.85 800,-151.85"/>
<polygon fill="black" stroke="black" points="796.5,-151.85 800,-161.85 803.5,-151.85 796.5,-151.85"/>
</g>
<!-- PostsService -->
<g id="node8" class="node">
<title>PostsService</title>
<ellipse fill="#fdb462" stroke="black" cx="84" cy="-104" rx="60.27" ry="18"/>
<text text-anchor="middle" x="84" y="-99.8" font-family="Times,serif" font-size="14.00">PostsService</text>
</g>
<!-- PostsService&#45;&gt;PostsModule -->
<g id="edge8" class="edge">
<title>PostsService&#45;&gt;PostsModule</title>
<path fill="none" stroke="black" d="M84,-122.01C84,-144.49 84,-180 84,-180 84,-180 174.31,-180 174.31,-180"/>
<polygon fill="black" stroke="black" points="174.31,-183.5 184.31,-180 174.31,-176.5 174.31,-183.5"/>
</g>
<!-- UsersService -->
<g id="node10" class="node">
<title>UsersService</title>
<ellipse fill="#fdb462" stroke="black" cx="646" cy="-180" rx="61.95" ry="18"/>
<text text-anchor="middle" x="646" y="-175.8" font-family="Times,serif" font-size="14.00">UsersService</text>
</g>
<!-- UsersService&#45;&gt;UsersModule -->
<g id="edge10" class="edge">
<title>UsersService&#45;&gt;UsersModule</title>
<path fill="none" stroke="black" d="M646,-161.97C646,-137.02 646,-95 646,-95 646,-95 286.11,-95 286.11,-95"/>
<polygon fill="black" stroke="black" points="286.11,-91.5 276.11,-95 286.11,-98.5 286.11,-91.5"/>
</g>
</g>
</svg>
