<?xml version="1.0" encoding="UTF-8" standalone="no"?>
<!DOCTYPE svg PUBLIC "-//W3C//DTD SVG 1.1//EN"
 "http://www.w3.org/Graphics/SVG/1.1/DTD/svg11.dtd">
<!-- Generated by graphviz version 2.47.0 (20210316.0004)
 -->
<!-- Title: dependencies Pages: 1 -->
<svg width="840pt" height="298pt"
 viewBox="0.00 0.00 840.00 298.00" xmlns="http://www.w3.org/2000/svg" xmlns:xlink="http://www.w3.org/1999/xlink">
<g id="graph0" class="graph" transform="scale(1 1) rotate(0) translate(4 294)">
<title>dependencies</title>
<polygon fill="white" stroke="transparent" points="-4,4 -4,-294 836,-294 836,4 -4,4"/>
<text text-anchor="start" x="395.01" y="-42.4" font-family="Times-12" font-weight="bold" font-size="14.00">Legend</text>
<polygon fill="#ffffb3" stroke="transparent" points="182,-10 182,-30 202,-30 202,-10 182,-10"/>
<text text-anchor="start" x="205.63" y="-15.4" font-family="Times-12" font-size="14.00"> &#160;Declarations</text>
<polygon fill="#8dd3c7" stroke="transparent" points="295,-10 295,-30 315,-30 315,-10 295,-10"/>
<text text-anchor="start" x="318.73" y="-15.4" font-family="Times-12" font-size="14.00"> &#160;Module</text>
<polygon fill="#80b1d3" stroke="transparent" points="381,-10 381,-30 401,-30 401,-10 381,-10"/>
<text text-anchor="start" x="404.78" y="-15.4" font-family="Times-12" font-size="14.00"> &#160;Bootstrap</text>
<polygon fill="#fdb462" stroke="transparent" points="478,-10 478,-30 498,-30 498,-10 478,-10"/>
<text text-anchor="start" x="501.67" y="-15.4" font-family="Times-12" font-size="14.00"> &#160;Providers</text>
<polygon fill="#fb8072" stroke="transparent" points="574,-10 574,-30 594,-30 594,-10 574,-10"/>
<text text-anchor="start" x="597.73" y="-15.4" font-family="Times-12" font-size="14.00"> &#160;Exports</text>
<g id="clust13" class="cluster">
<title>cluster_PostsModule</title>
<polygon fill="none" stroke="black" stroke-dasharray="1,5" points="8,-70 8,-198 276,-198 276,-70 8,-70"/>
</g>
<g id="clust18" class="cluster">
<title>cluster_PostsModule_providers</title>
<polygon fill="none" stroke="black" points="16,-78 16,-130 152,-130 152,-78 16,-78"/>
</g>
<g id="clust15" class="cluster">
<title>cluster_PostsModule_imports</title>
<polygon fill="none" stroke="black" points="160,-78 160,-130 268,-130 268,-78 160,-78"/>
</g>
<g id="clust1" class="cluster">
<title>cluster_AppModule</title>
<polygon fill="none" stroke="black" stroke-dasharray="1,5" points="284,-138 284,-274 542,-274 542,-138 284,-138"/>
</g>
<g id="clust3" class="cluster">
<title>cluster_AppModule_imports</title>
<polygon fill="none" stroke="black" points="430,-146 430,-198 534,-198 534,-146 430,-146"/>
</g>
<g id="clust6" class="cluster">
<title>cluster_AppModule_providers</title>
<polygon fill="none" stroke="black" points="292,-146 292,-198 422,-198 422,-146 292,-146"/>
</g>
<g id="clust19" class="cluster">
<title>cluster_UsersModule</title>
<polygon fill="none" stroke="black" stroke-dasharray="1,5" points="550,-138 550,-206 824,-206 824,-138 550,-138"/>
</g>
<g id="clust22" class="cluster">
<title>cluster_UsersModule_exports</title>
<polygon fill="none" stroke="black" points="706,-146 706,-198 816,-198 816,-146 706,-146"/>
</g>
<g id="clust24" class="cluster">
<title>cluster_UsersModule_providers</title>
<polygon fill="none" stroke="black" points="558,-146 558,-198 698,-198 698,-146 558,-146"/>
</g>
<g id="clust7" class="cluster">
<title>cluster_AuthModule</title>
<polygon fill="none" stroke="black" stroke-dasharray="1,5" points="550,-214 550,-282 814,-282 814,-214 550,-214"/>
</g>
<g id="clust12" class="cluster">
<title>cluster_AuthModule_providers</title>
<polygon fill="none" stroke="black" points="672,-222 672,-274 806,-274 806,-222 672,-222"/>
</g>
<g id="clust10" class="cluster">
<title>cluster_AuthModule_exports</title>
<polygon fill="none" stroke="black" points="558,-222 558,-274 664,-274 664,-222 558,-222"/>
</g>
<!-- AuthModule -->
<g id="node1" class="node">
<title>AuthModule</title>
<polygon fill="#8dd3c7" stroke="black" points="525.55,-190 522.55,-194 501.55,-194 498.55,-190 438.45,-190 438.45,-154 525.55,-154 525.55,-190"/>
<text text-anchor="middle" x="482" y="-167.8" font-family="Times,serif" font-size="14.00">AuthModule</text>
</g>
<!-- AppModule -->
<g id="node4" class="node">
<title>AppModule</title>
<polygon fill="#8dd3c7" stroke="black" points="386.66,-266 383.66,-270 362.66,-270 359.66,-266 303.34,-266 303.34,-230 386.66,-230 386.66,-266"/>
<text text-anchor="middle" x="345" y="-243.8" font-family="Times,serif" font-size="14.00">AppModule</text>
</g>
<!-- AuthModule&#45;&gt;AppModule -->
<g id="edge1" class="edge">
<title>AuthModule&#45;&gt;AppModule</title>
<path fill="none" stroke="black" d="M482,-190.03C482,-210.77 482,-242 482,-242 482,-242 396.85,-242 396.85,-242"/>
<polygon fill="black" stroke="black" points="396.85,-238.5 386.85,-242 396.85,-245.5 396.85,-238.5"/>
</g>
<!-- AuthService  -->
<g id="node6" class="node">
<title>AuthService </title>
<polygon fill="#fb8072" stroke="black" points="655.98,-266 566.02,-266 566.02,-230 655.98,-230 655.98,-266"/>
<text text-anchor="middle" x="611" y="-243.8" font-family="Times,serif" font-size="14.00">AuthService </text>
</g>
<!-- AuthModule&#45;&gt;AuthService  -->
<g id="edge5" class="edge">
<title>AuthModule&#45;&gt;AuthService </title>
<path fill="none" stroke="black" stroke-dasharray="5,2" d="M503.89,-190.2C503.89,-214.36 503.89,-254 503.89,-254 503.89,-254 556.19,-254 556.19,-254"/>
<polygon fill="black" stroke="black" points="556.2,-257.5 566.19,-254 556.19,-250.5 556.2,-257.5"/>
</g>
<!-- PostsModule -->
<g id="node2" class="node">
<title>PostsModule</title>
<polygon fill="#8dd3c7" stroke="black" points="243.61,-190 240.61,-194 219.61,-194 216.61,-190 154.39,-190 154.39,-154 243.61,-154 243.61,-190"/>
<text text-anchor="middle" x="199" y="-167.8" font-family="Times,serif" font-size="14.00">PostsModule</text>
</g>
<!-- PostsModule&#45;&gt;AppModule -->
<g id="edge2" class="edge">
<title>PostsModule&#45;&gt;AppModule</title>
<path fill="none" stroke="black" d="M199,-190.2C199,-214.36 199,-254 199,-254 199,-254 293.16,-254 293.16,-254"/>
<polygon fill="black" stroke="black" points="293.16,-257.5 303.16,-254 293.16,-250.5 293.16,-257.5"/>
</g>
<!-- UsersModule -->
<g id="node3" class="node">
<title>UsersModule</title>
<polygon fill="#8dd3c7" stroke="black" points="259.92,-122 256.92,-126 235.92,-126 232.92,-122 168.08,-122 168.08,-86 259.92,-86 259.92,-122"/>
<text text-anchor="middle" x="214" y="-99.8" font-family="Times,serif" font-size="14.00">UsersModule</text>
</g>
<!-- UsersModule&#45;&gt;PostsModule -->
<g id="edge7" class="edge">
<title>UsersModule&#45;&gt;PostsModule</title>
<path fill="none" stroke="black" d="M205.92,-122.22C205.92,-122.22 205.92,-143.73 205.92,-143.73"/>
<polygon fill="black" stroke="black" points="202.42,-143.73 205.92,-153.73 209.42,-143.73 202.42,-143.73"/>
</g>
<!-- UsersModule&#45;&gt;AppModule -->
<g id="edge3" class="edge">
<title>UsersModule&#45;&gt;AppModule</title>
<path fill="none" stroke="black" d="M251.63,-122.04C251.63,-159.45 251.63,-242 251.63,-242 251.63,-242 293.23,-242 293.23,-242"/>
<polygon fill="black" stroke="black" points="293.23,-245.5 303.23,-242 293.23,-238.5 293.23,-245.5"/>
</g>
<!-- UsersService  -->
<g id="node9" class="node">
<title>UsersService </title>
<polygon fill="#fb8072" stroke="black" points="807.85,-190 714.15,-190 714.15,-154 807.85,-154 807.85,-190"/>
<text text-anchor="middle" x="761" y="-167.8" font-family="Times,serif" font-size="14.00">UsersService </text>
</g>
<!-- UsersModule&#45;&gt;UsersService  -->
<g id="edge9" class="edge">
<title>UsersModule&#45;&gt;UsersService </title>
<path fill="none" stroke="black" stroke-dasharray="5,2" d="M260.17,-98C392.04,-98 761,-98 761,-98 761,-98 761,-143.71 761,-143.71"/>
<polygon fill="black" stroke="black" points="757.5,-143.71 761,-153.71 764.5,-143.71 757.5,-143.71"/>
</g>
<!-- AppService -->
<g id="node5" class="node">
<title>AppService</title>
<ellipse fill="#fdb462" stroke="black" cx="357" cy="-172" rx="56.74" ry="18"/>
<text text-anchor="middle" x="357" y="-167.8" font-family="Times,serif" font-size="14.00">AppService</text>
</g>
<!-- AppService&#45;&gt;AppModule -->
<g id="edge4" class="edge">
<title>AppService&#45;&gt;AppModule</title>
<path fill="none" stroke="black" d="M345,-189.63C345,-189.63 345,-219.94 345,-219.94"/>
<polygon fill="black" stroke="black" points="341.5,-219.94 345,-229.94 348.5,-219.94 341.5,-219.94"/>
</g>
<!-- AuthService -->
<g id="node7" class="node">
<title>AuthService</title>
<ellipse fill="#fdb462" stroke="black" cx="739" cy="-248" rx="59.11" ry="18"/>
<text text-anchor="middle" x="739" y="-243.8" font-family="Times,serif" font-size="14.00">AuthService</text>
</g>
<!-- AuthService&#45;&gt;AuthModule -->
<g id="edge6" class="edge">
<title>AuthService&#45;&gt;AuthModule</title>
<path fill="none" stroke="black" d="M684.84,-240.31C684.84,-229.21 684.84,-210 684.84,-210 684.84,-210 460.11,-210 460.11,-210 460.11,-210 460.11,-200.11 460.11,-200.11"/>
<polygon fill="black" stroke="black" points="463.61,-200.11 460.11,-190.11 456.61,-200.11 463.61,-200.11"/>
</g>
<!-- PostsService -->
<g id="node8" class="node">
<title>PostsService</title>
<ellipse fill="#fdb462" stroke="black" cx="84" cy="-104" rx="60.27" ry="18"/>
<text text-anchor="middle" x="84" y="-99.8" font-family="Times,serif" font-size="14.00">PostsService</text>
</g>
<!-- PostsService&#45;&gt;PostsModule -->
<g id="edge8" class="edge">
<title>PostsService&#45;&gt;PostsModule</title>
<path fill="none" stroke="black" d="M144.58,-104C154.37,-104 161.37,-104 161.37,-104 161.37,-104 161.37,-143.78 161.37,-143.78"/>
<polygon fill="black" stroke="black" points="157.87,-143.78 161.37,-153.78 164.87,-143.78 157.87,-143.78"/>
</g>
<!-- UsersService -->
<g id="node10" class="node">
<title>UsersService</title>
<ellipse fill="#fdb462" stroke="black" cx="628" cy="-172" rx="61.95" ry="18"/>
<text text-anchor="middle" x="628" y="-167.8" font-family="Times,serif" font-size="14.00">UsersService</text>
</g>
<!-- UsersService&#45;&gt;UsersModule -->
<g id="edge10" class="edge">
<title>UsersService&#45;&gt;UsersModule</title>
<path fill="none" stroke="black" d="M628,-153.73C628,-135.44 628,-110 628,-110 628,-110 269.89,-110 269.89,-110"/>
<polygon fill="black" stroke="black" points="269.89,-106.5 259.89,-110 269.89,-113.5 269.89,-106.5"/>
</g>
</g>
</svg>
